# Blender 4.2.3 LTS
# www.blender.org
mtllib creeper.mtl
o Creeper
v -0.278000 8.500000 1.074000
v -0.382000 8.500000 1.074000
v -0.278000 8.500000 1.126000
v -0.382000 8.500000 1.126000
v -0.278000 8.656000 1.074000
v -0.382000 8.656000 1.074000
v -0.278000 8.656000 1.126000
v -0.382000 8.656000 1.126000
v -0.278000 8.656000 1.048000
v -0.382000 8.656000 1.048000
v -0.278000 8.656000 1.152000
v -0.382000 8.656000 1.152000
v -0.278000 8.760000 1.048000
v -0.382000 8.760000 1.048000
v -0.278000 8.760000 1.152000
v -0.382000 8.760000 1.152000
v -0.278000 8.422000 1.022000
v -0.330000 8.422000 1.022000
v -0.278000 8.422000 1.074000
v -0.330000 8.422000 1.074000
v -0.278000 8.500000 1.022000
v -0.330000 8.500000 1.022000
v -0.278000 8.500000 1.074000
v -0.330000 8.500000 1.074000
v -0.330000 8.422000 1.022000
v -0.382000 8.422000 1.022000
v -0.330000 8.422000 1.074000
v -0.382000 8.422000 1.074000
v -0.330000 8.500000 1.022000
v -0.382000 8.500000 1.022000
v -0.330000 8.500000 1.074000
v -0.382000 8.500000 1.074000
v -0.278000 8.422000 1.126000
v -0.330000 8.422000 1.126000
v -0.278000 8.422000 1.178000
v -0.330000 8.422000 1.178000
v -0.278000 8.500000 1.126000
v -0.330000 8.500000 1.126000
v -0.278000 8.500000 1.178000
v -0.330000 8.500000 1.178000
v -0.330000 8.422000 1.126000
v -0.382000 8.422000 1.126000
v -0.330000 8.422000 1.178000
v -0.382000 8.422000 1.178000
v -0.330000 8.500000 1.126000
v -0.382000 8.500000 1.126000
v -0.330000 8.500000 1.178000
v -0.382000 8.500000 1.178000
vn -0.0000 -1.0000 -0.0000
vn -0.0000 1.0000 -0.0000
vn -0.0000 -0.0000 -1.0000
vn -1.0000 -0.0000 -0.0000
vn -0.0000 -0.0000 1.0000
vn 1.0000 -0.0000 -0.0000
vt 0.437500 0.687500
vt 0.437500 0.750000
vt 0.562500 0.750000
vt 0.562710 0.687500
vt 0.312500 0.687500
vt 0.312500 0.750000
vt 0.312500 0.500000
vt 0.437500 0.500000
vt 0.500000 0.500000
vt 0.500000 0.687500
vt 0.625000 0.500000
vt 0.625000 0.687500
vt 0.250000 0.500000
vt 0.250000 0.687500
vt 0.250000 0.875000
vt 0.250000 1.000000
vt 0.375000 1.000000
vt 0.375000 0.875000
vt 0.125000 0.875000
vt 0.125000 1.000000
vt 0.125000 0.750000
vt 0.250000 0.750000
vt 0.375000 0.750000
vt 0.500000 0.750000
vt 0.500000 0.875000
vt 0.000000 0.750000
vt 0.125000 0.875000
vt 0.000000 0.875000
vt 0.125000 0.687500
vt 0.187500 0.750000
vt 0.187500 0.687500
vt 0.062500 0.687500
vt 0.062500 0.750000
vt 0.062500 0.593816
vt 0.125000 0.593816
vt 0.187500 0.593816
vt 0.250000 0.593816
vt 0.000000 0.593816
vt 0.000000 0.687500
s 1
usemtl Material.004
f 1/1/1 3/2/1 4/3/1 2/4/1
f 5/5/2 6/1/2 8/2/2 7/6/2
f 1/7/3 2/8/3 6/1/3 5/5/3
f 2/8/4 4/9/4 8/10/4 6/1/4
f 4/9/5 3/11/5 7/12/5 8/10/5
f 3/13/6 1/7/6 5/5/6 7/14/6
f 9/15/1 11/16/1 12/17/1 10/18/1
f 13/19/2 14/15/2 16/16/2 15/20/2
f 9/21/3 10/22/3 14/15/3 13/19/3
f 10/22/4 12/23/4 16/18/4 14/15/4
f 12/23/5 11/24/5 15/25/5 16/18/5
f 11/26/6 9/21/6 13/27/6 15/28/6
f 17/29/1 19/21/1 20/30/1 18/31/1
f 21/32/2 22/29/2 24/21/2 23/33/2
f 17/34/3 18/35/3 22/29/3 21/32/3
f 18/35/4 20/36/4 24/31/4 22/29/4
f 20/36/5 19/37/5 23/14/5 24/31/5
f 19/38/6 17/34/6 21/32/6 23/39/6
f 25/29/1 27/21/1 28/30/1 26/31/1
f 29/32/2 30/29/2 32/21/2 31/33/2
f 25/34/3 26/35/3 30/29/3 29/32/3
f 26/35/4 28/36/4 32/31/4 30/29/4
f 28/36/5 27/37/5 31/14/5 32/31/5
f 27/38/6 25/34/6 29/32/6 31/39/6
f 33/29/1 35/21/1 36/30/1 34/31/1
f 37/32/2 38/29/2 40/21/2 39/33/2
f 33/34/3 34/35/3 38/29/3 37/32/3
f 34/35/4 36/36/4 40/31/4 38/29/4
f 36/36/5 35/37/5 39/14/5 40/31/5
f 35/38/6 33/34/6 37/32/6 39/39/6
f 41/29/1 43/21/1 44/30/1 42/31/1
f 45/32/2 46/29/2 48/21/2 47/33/2
f 41/34/3 42/35/3 46/29/3 45/32/3
f 42/35/4 44/36/4 48/31/4 46/29/4
f 44/36/5 43/37/5 47/14/5 48/31/5
f 43/38/6 41/34/6 45/32/6 47/39/6
